<svg width="21" height="20" viewBox="0 0 21 20" fill="none" xmlns="http://www.w3.org/2000/svg">
<path d="M9.25 2C8.69772 2 8.25 2.44772 8.25 3C8.25 3.55228 8.69772 4 9.25 4H11.25C11.8023 4 12.25 3.55228 12.25 3C12.25 2.44772 11.8023 2 11.25 2H9.25Z" fill="#FEFEFF"/>
<path fill-rule="evenodd" clip-rule="evenodd" d="M4.25 5C4.25 3.89543 5.14543 3 6.25 3C6.25 4.65685 7.59315 6 9.25 6H11.25C12.9069 6 14.25 4.65685 14.25 3C15.3546 3 16.25 3.89543 16.25 5V16C16.25 17.1046 15.3546 18 14.25 18H6.25C5.14543 18 4.25 17.1046 4.25 16V5ZM7.25 9C6.69772 9 6.25 9.44772 6.25 10C6.25 10.5523 6.69772 11 7.25 11H7.26C7.81228 11 8.26 10.5523 8.26 10C8.26 9.44772 7.81228 9 7.26 9H7.25ZM10.25 9C9.69772 9 9.25 9.44772 9.25 10C9.25 10.5523 9.69772 11 10.25 11H13.25C13.8023 11 14.25 10.5523 14.25 10C14.25 9.44772 13.8023 9 13.25 9H10.25ZM7.25 13C6.69772 13 6.25 13.4477 6.25 14C6.25 14.5523 6.69772 15 7.25 15H7.26C7.81228 15 8.26 14.5523 8.26 14C8.26 13.4477 7.81228 13 7.26 13H7.25ZM10.25 13C9.69772 13 9.25 13.4477 9.25 14C9.25 14.5523 9.69772 15 10.25 15H13.25C13.8023 15 14.25 14.5523 14.25 14C14.25 13.4477 13.8023 13 13.25 13H10.25Z" fill="#FEFEFF"/>
</svg>
